# xmcd
# 
# Track frame offsets:
#	150
#	12884
#	26286
#	38146
#	53559
#	88942
#	103927
#	119976
#	133074
#	146345
#	157586
#	173282
#	188696
#	201887
#	214209
#	231980
#	246844
#	259035
#
# Disc length: 3501 seconds
#
# Revision: 2
# Processed by: cddbd v1.4PL0 Copyright (c) Steve Scherf et al.
# Submitted via: Audio-CD-Archiv 2.10.441
#
DISCID=f20dab12
DTITLE=The Blues Brothers - Complete - Disc 2
DYEAR=1900
DGENRE=blues
TTITLE0=Shake A Tail Feather
TTITLE1=The Old Landmark
TTITLE2=Theme From Rawhide
TTITLE3=Minnie The Moocher
TTITLE4=Sweet Home Chicago
TTITLE5=Jailhouse Rock
TTITLE6=Who's Making Love
TTITLE7=Do You Love Me
TTITLE8=Guilty
TTITLE9=Perry Mason Theme
TTITLE10=Riot In Cell Block Number Nine
TTITLE11=Green Onions
TTITLE12=I Ain't Got You
TTITLE13=From The Bottom
TTITLE14=Going Back To Miami
TTITLE15=Expressway To Your Heart
TTITLE16=Excusez Moi Mon Cherie
TTITLE17=Closing: I Can't Turn You Loose
EXTD=
EXTT0=
EXTT1=
EXTT2=
EXTT3=
EXTT4=
EXTT5=
EXTT6=
EXTT7=
EXTT8=
EXTT9=
EXTT10=
EXTT11=
EXTT12=
EXTT13=
EXTT14=
EXTT15=
EXTT16=
EXTT17=
PLAYORDER=
